<?xml version="1.0" encoding="UTF-8" standalone="no"?>
<!-- Created with Inkscape (http://www.inkscape.org/) -->

<svg
   width="512px"
   height="512px"
   viewBox="0 0 512 512"
   version="1.1"
   id="SVGRoot"
   sodipodi:docname="Icon-InnerGradient.svg"
   inkscape:version="1.1.2 (0a00cf5339, 2022-02-04)"
   inkscape:export-filename="/home/wg/Sentinel New/Sentinel App Icon/PNG/Icon-Gradient.png"
   inkscape:export-xdpi="300"
   inkscape:export-ydpi="300"
   xmlns:inkscape="http://www.inkscape.org/namespaces/inkscape"
   xmlns:sodipodi="http://sodipodi.sourceforge.net/DTD/sodipodi-0.dtd"
   xmlns:xlink="http://www.w3.org/1999/xlink"
   xmlns="http://www.w3.org/2000/svg"
   xmlns:svg="http://www.w3.org/2000/svg">
  <sodipodi:namedview
     id="namedview3449"
     pagecolor="#ffffff"
     bordercolor="#666666"
     borderopacity="1.0"
     inkscape:pageshadow="2"
     inkscape:pageopacity="0.0"
     inkscape:pagecheckerboard="0"
     inkscape:document-units="px"
     showgrid="false"
     inkscape:zoom="0.63938213"
     inkscape:cx="344.86419"
     inkscape:cy="484.84308"
     inkscape:window-width="2534"
     inkscape:window-height="1371"
     inkscape:window-x="2586"
     inkscape:window-y="32"
     inkscape:window-maximized="0"
     inkscape:current-layer="layer1"
     showguides="true"
     inkscape:guide-bbox="true">
    <sodipodi:guide
       position="33.363,223.10048"
       orientation="-1,0"
       id="guide3675"
       inkscape:label=""
       inkscape:locked="false"
       inkscape:color="rgb(0,0,255)" />
    <sodipodi:guide
       position="478.63712,162.65137"
       orientation="1,0"
       id="guide3677" />
    <sodipodi:guide
       position="344.05085,512"
       orientation="0,1"
       id="guide3679"
       inkscape:label=""
       inkscape:locked="false"
       inkscape:color="rgb(0,0,255)" />
    <sodipodi:guide
       position="237.07354,0"
       orientation="0,1"
       id="guide3681"
       inkscape:label=""
       inkscape:locked="false"
       inkscape:color="rgb(0,0,255)" />
    <sodipodi:guide
       position="512,63.522303"
       orientation="-1,0"
       id="guide3947"
       inkscape:label=""
       inkscape:locked="false"
       inkscape:color="rgb(0,0,255)" />
    <sodipodi:guide
       position="301.37955,484.92567"
       orientation="0,-1"
       id="guide4016" />
    <sodipodi:guide
       position="33.363003,27.019012"
       orientation="0,-1"
       id="guide4018" />
    <sodipodi:guide
       position="0,0"
       orientation="-1,0"
       id="guide4340"
       inkscape:label=""
       inkscape:locked="false"
       inkscape:color="rgb(0,0,255)" />
  </sodipodi:namedview>
  <defs
     id="defs3444">
    <linearGradient
       inkscape:collect="always"
       id="ddd">
      <stop
         style="stop-color:#1a86ff;stop-opacity:1"
         offset="0"
         id="stop9226" />
      <stop
         style="stop-color:#ff2547;stop-opacity:1"
         offset="1"
         id="stop9228" />
    </linearGradient>
    <linearGradient
       inkscape:collect="always"
       xlink:href="#ddd"
       id="linearGradient841"
       x1="33.362999"
       y1="484.98099"
       x2="449.90335"
       y2="177.70473"
       gradientUnits="userSpaceOnUse" />
  </defs>
  <g
     inkscape:label="Layer 1"
     inkscape:groupmode="layer"
     id="layer1">
    <path
       id="path20852"
       style="fill:url(#linearGradient841);fill-opacity:1;stroke-width:5.66929;stop-color:#000000"
       d="m 334.7387,27.07566 c -8.55661,1.0209 -48.64761,13.774049 -64.0214,32.022256 -8.22597,9.763995 -16.07167,20.591566 -18.91467,33.277709 V 264.20639 l 34.71163,0.0229 3.71862,-14.85832 v -0.0126 l -12.71018,-14.93321 -5.90308,2.24406 -3.08869,-1.97148 -1.4071,12.64112 8.1452,15.72983 -10.39909,-12.64107 -2.52436,-20.50794 -8.70952,-7.30058 1.97142,-8.70959 0.28225,5.90303 8.1471,-17.13706 12.92324,1.40715 6.74777,-12.64111 24.71976,-11.51618 28.37296,12.64303 2.89476,10.91148 -2.78539,14.89483 10.32989,11.5258 -5.16989,5.56126 2.3824,4.17345 -3.17702,3.77215 1.19593,3.77024 -2.38239,1.99265 3.77035,9.53316 -25.42435,-2.97746 -1.88119,8.52151 71.08574,0.0478 v 9.60417 h 0.021 v -21.91317 h 8.99178 V 266.739 h 4.43836 l -1.35136,-8.42741 9.55419,-3.65123 2.29195,4.95853 21.17235,2.34391 -0.5069,4.7762 h 15.96208 c -4.37863,-24.30239 -18.1537,-41.26331 -26.60094,-50.67005 -18.46983,-20.5789 -3.57454,-48.76186 -3.57454,-48.76186 -13.88929,7.95223 -22.20296,18.02745 -27.15957,27.49757 -5.89699,11.28351 -7.05296,21.70771 -7.22774,26.67784 -0.44316,-17.98645 -8.42242,-43.81789 -21.30465,-67.31179 -4.63418,-8.46259 -29.9946,-32.05159 -34.67904,-39.80464 -7.21891,-11.94817 -12.20855,-31.910827 -5.98933,-60.999795 1.72258,-8.056316 10.81321,-16.811822 13.06542,-26.291941 z M 239.05983,92.842088 C 136.62541,99.49949 56.914937,184.72259 56.908839,288.93192 c 0,103.71377 80.336621,188.60759 182.166351,195.99379 v -54.91825 l -29.1293,29.53816 -12.73521,-12.54708 41.86451,-42.45185 v -10.7771 l -29.50748,26.6337 -11.99021,-13.26313 41.49769,-37.46064 v -63.32267 l -44.77861,44.77084 2.85479,55.83395 -17.85714,0.9061 -2.02716,-39.70095 -7.62484,7.62687 -0.40888,59.61387 -17.87418,-0.12094 0.27827,-41.48819 -19.50781,19.49626 -12.63531,-12.63532 19.50592,-19.50779 -41.49791,0.27829 -0.119888,-17.87608 59.621538,-0.40696 7.62505,-7.62499 -39.70675,-2.02908 0.91367,-17.85494 55.82448,2.85265 44.48667,-55.90691 h -63.32836 l -37.16114,52.62615 -13.27282,-11.98072 26.3534,-40.64542 H 127.95166 L 85.78953,335.57637 73.244461,322.85077 102.49071,282.58354 H 74.910683 l 0.115682,-0.0268 -17.807081,0.0268 32.131746,-18.48468 h 1.551177 l -21.588794,-21.32763 12.545067,-12.72748 34.51603,34.07049 12.07857,0.0106 -16.06766,-17.78968 13.2726,-11.99035 26.89666,29.79537 62.23045,0.04 -33.12427,-33.11642 -55.82448,2.85265 -0.91368,-17.85493 39.70677,-2.02915 -7.62485,-7.62493 -59.621546,-0.4185 0.119886,-17.87612 41.4977,0.28798 -19.50592,-19.50589 12.63531,-12.63729 19.5078,19.50783 -0.27826,-41.4997 17.87417,-0.11905 0.40889,59.61381 7.62506,7.62497 2.02714,-39.70863 17.85694,0.92531 -2.8546,55.81475 44.77842,44.78048 v -62.70676 l -41.4977,-37.4626 11.99023,-13.26307 29.50747,26.6356 v -10.7774 l -41.86451,-42.45419 12.7352,-12.54702 29.12552,29.54004 z m 191.66292,188.230612 -1.76214,16.57456 -22.2549,61.01519 -26.06944,-14.38033 v -0.006 l -0.021,-0.006 h 0.021 l 23.2262,-44.241 -7.21975,-11.37414 v 7.16042 h -8.99177 v -14.70287 h -0.021 v 0.95404 l -73.68119,0.11527 18.62652,6.47315 0.84658,14.05016 34.83638,52.82005 12.36104,-11.23397 32.58479,17.98169 1.01735,24.96163 -21.47354,37.1228 -19.66156,22.5179 -5.8627,5.25606 c 45.6334,-27.6067 70.50038,-71.32386 70.50038,-71.32386 5.37307,-9.49692 12.15533,-23.35777 17.3673,-41.33074 -4.2718,6.29992 -12.1564,15.87637 -25.03842,22.5927 -4.20447,2.203 -8.24803,3.72074 -11.87516,4.78191 7.10617,-9.60437 16.88625,-25.01169 23.54885,-45.88614 4.11026,-12.8624 7.74304,-25.72534 7.74577,-39.89296 z m -155.47497,1.17103 -23.44516,0.0367 v 78.60144 l 25.91568,-71.94395 z" />
  </g>
</svg>
